<?xml version="1.0" encoding="UTF-8" standalone="no"?>
<!-- Generator: Adobe Illustrator 16.0.0, SVG Export Plug-In . SVG Version: 6.00 Build 0)  -->

<svg
   xmlns:dc="http://purl.org/dc/elements/1.1/"
   xmlns:cc="http://creativecommons.org/ns#"
   xmlns:rdf="http://www.w3.org/1999/02/22-rdf-syntax-ns#"
   xmlns:svg="http://www.w3.org/2000/svg"
   xmlns="http://www.w3.org/2000/svg"
   xmlns:sodipodi="http://sodipodi.sourceforge.net/DTD/sodipodi-0.dtd"
   xmlns:inkscape="http://www.inkscape.org/namespaces/inkscape"
   version="1.1"
   id="Capa_1"
   x="0px"
   y="0px"
   width="451.373px"
   height="451.373px"
   viewBox="0 0 451.373 451.373"
   style="enable-background:new 0 0 451.373 451.373;"
   xml:space="preserve"
   inkscape:version="0.91 r13725"
   sodipodi:docname="WorkoutLog.svg"><metadata
     id="metadata3578"><rdf:RDF><cc:Work
         rdf:about=""><dc:format>image/svg+xml</dc:format><dc:type
           rdf:resource="http://purl.org/dc/dcmitype/StillImage" /><dc:title /></cc:Work></rdf:RDF></metadata><defs
     id="defs3576" /><sodipodi:namedview
     pagecolor="#ffffff"
     bordercolor="#666666"
     borderopacity="1"
     objecttolerance="10"
     gridtolerance="10"
     guidetolerance="10"
     inkscape:pageopacity="0"
     inkscape:pageshadow="2"
     inkscape:window-width="1858"
     inkscape:window-height="1177"
     id="namedview3574"
     showgrid="false"
     inkscape:zoom="1.402079"
     inkscape:cx="-77.73133"
     inkscape:cy="202.31851"
     inkscape:window-x="-8"
     inkscape:window-y="-8"
     inkscape:window-maximized="1"
     inkscape:current-layer="Capa_1" /><g
     id="g3544"
     transform="translate(-101.78348,0)" /><g
     id="g3546"
     transform="translate(-101.78348,0)" /><g
     id="g3548"
     transform="translate(-101.78348,0)" /><g
     id="g3550"
     transform="translate(-101.78348,0)" /><g
     id="g3552"
     transform="translate(-101.78348,0)" /><g
     id="g3554"
     transform="translate(-101.78348,0)" /><g
     id="g3556"
     transform="translate(-101.78348,0)" /><g
     id="g3558"
     transform="translate(-101.78348,0)" /><g
     id="g3560"
     transform="translate(-101.78348,0)" /><g
     id="g3562"
     transform="translate(-101.78348,0)" /><g
     id="g3564"
     transform="translate(-101.78348,0)" /><g
     id="g3566"
     transform="translate(-101.78348,0)" /><g
     id="g3568"
     transform="translate(-101.78348,0)" /><g
     id="g3570"
     transform="translate(-101.78348,0)" /><g
     id="g3572"
     transform="translate(-101.78348,0)" /><rect
     style="fill:#ffffff;fill-opacity:1;stroke:#357ec7;stroke-width:28.13626671;stroke-linecap:butt;stroke-miterlimit:4;stroke-dasharray:none;stroke-opacity:1"
     id="rect4417"
     width="423.42496"
     height="424.0939"
     x="13.974014"
     y="13.639542"
     rx="79.601212"
     ry="79.601212" /><g
     id="g3535"
     transform="matrix(0.93276999,0,0,0.93276999,26.367859,-81.928408)"
     style="fill:#357ec7;fill-opacity:1;image-rendering:auto"><g
       id="_x34_6_8_"
       style="fill:#357ec7;fill-opacity:1"><g
         id="g3538"
         style="fill:#357ec7;fill-opacity:1"><path
           sodipodi:type="inkscape:offset"
           inkscape:radius="11.761679"
           inkscape:original="M 106.8125 238.50195 C 95.0903 238.50195 85.578125 248.01318 85.578125 259.73438 L 85.578125 267.86328 C 81.936618 261.40367 75.160311 256.94141 67.220703 256.94141 C 55.498561 256.94141 45.986328 266.45361 45.986328 278.17383 L 45.986328 290.79492 C 42.102836 286.51892 36.569282 283.76172 30.339844 283.76172 C 18.618649 283.76172 9.1074219 293.27295 9.1074219 304.99414 L 9.1074219 385.37891 C 9.1074219 397.09815 18.61862 406.61133 30.339844 406.61133 C 36.569291 406.61133 42.102913 403.8526 45.986328 399.57812 L 45.986328 412.19922 C 45.986328 423.91846 55.498503 433.43164 67.220703 433.43164 C 75.160384 433.43164 81.936637 428.96765 85.578125 422.50781 L 85.578125 430.63867 C 85.578125 442.35987 95.0903 451.87109 106.8125 451.87109 C 118.53372 451.87109 128.04687 442.35987 128.04688 430.63867 L 128.04688 366.41992 L 323.32617 366.41992 L 323.32617 430.63867 C 323.32617 442.35987 332.83835 451.87305 344.56055 451.87305 C 356.28177 451.87305 365.79297 442.35987 365.79297 430.63867 L 365.79297 422.50977 C 369.43432 428.96958 376.21071 433.43164 384.15039 433.43164 C 395.87161 433.43164 405.38477 423.91846 405.38477 412.19922 L 405.38477 399.58008 C 409.26834 403.85606 414.80149 406.61133 421.0293 406.61133 C 432.7515 406.61133 442.26367 397.1001 442.26367 385.38086 L 442.26367 304.99609 C 442.26667 293.27382 432.75342 283.76172 421.03125 283.76172 C 414.80344 283.76172 409.27021 286.52017 405.38672 290.79297 L 405.38672 278.17383 C 405.38672 266.45361 395.87351 256.94141 384.15234 256.94141 C 376.21266 256.94141 369.43563 261.40499 365.79492 267.86328 L 365.79492 259.73438 C 365.79492 248.01317 356.28372 238.50195 344.5625 238.50195 C 332.8403 238.50195 323.32813 248.01318 323.32812 259.73438 L 323.32812 323.95508 L 128.04688 323.95508 L 128.04688 259.73438 C 128.04688 248.01317 118.53372 238.50195 106.8125 238.50195 z M 106.8125 239.50195 C 117.99328 239.50195 127.04687 248.55357 127.04688 259.73438 L 127.04688 324.95508 L 324.32812 324.95508 L 324.32812 259.73438 C 324.32812 248.55356 333.3807 239.50195 344.5625 239.50195 C 355.74328 239.50195 364.79492 248.55357 364.79492 259.73438 L 364.79492 269.56055 L 365.75 269.76953 C 368.9408 262.79466 375.97315 257.94141 384.15234 257.94141 C 395.33318 257.94141 404.38672 266.99405 404.38672 278.17383 L 404.38672 293.41016 L 405.27539 292.30664 C 408.98432 287.70855 414.6595 284.76172 421.03125 284.76172 C 432.21308 284.76172 441.2666 293.81436 441.26367 304.99609 L 441.26367 385.38086 C 441.26367 396.55962 432.2111 405.61133 421.0293 405.61133 C 414.6574 405.61133 408.98231 402.66833 405.27344 398.06641 L 404.38477 396.96289 L 404.38477 412.19922 C 404.38477 423.37798 395.33117 432.43164 384.15039 432.43164 C 375.97119 432.43164 368.93989 427.58048 365.74805 420.60352 L 364.79297 420.81055 L 364.79297 430.63867 C 364.79297 441.81948 355.74132 450.87305 344.56055 450.87305 C 333.37875 450.87305 324.32617 441.81948 324.32617 430.63867 L 324.32617 365.41992 L 127.04688 365.41992 L 127.04688 430.63867 C 127.04688 441.81948 117.99328 450.87109 106.8125 450.87109 C 95.6307 450.87109 86.578125 441.81948 86.578125 430.63867 L 86.578125 420.81055 L 85.625 420.60156 C 82.433177 427.57849 75.3999 432.43164 67.220703 432.43164 C 56.038903 432.43164 46.986328 423.37798 46.986328 412.19922 L 46.986328 396.96289 L 46.097656 398.06445 C 42.3887 402.66356 36.712613 405.61133 30.339844 405.61133 C 19.159068 405.61133 10.107422 396.55766 10.107422 385.37891 L 10.107422 304.99414 C 10.107422 293.81334 19.159038 284.76172 30.339844 284.76172 C 36.712766 284.76172 42.388761 287.70566 46.097656 292.30664 L 46.986328 293.41016 L 46.986328 278.17383 C 46.986328 266.99405 56.038845 257.94141 67.220703 257.94141 C 75.399979 257.94141 82.433192 262.79264 85.625 269.76953 L 86.578125 269.56055 L 86.578125 259.73438 C 86.578125 248.55356 95.6307 239.50195 106.8125 239.50195 z "
           style="color:#000000;font-style:normal;font-variant:normal;font-weight:normal;font-stretch:normal;font-size:medium;line-height:normal;font-family:sans-serif;text-indent:0;text-align:start;text-decoration:none;text-decoration-line:none;text-decoration-style:solid;text-decoration-color:#000000;letter-spacing:normal;word-spacing:normal;text-transform:none;direction:ltr;block-progression:tb;writing-mode:lr-tb;baseline-shift:baseline;text-anchor:start;white-space:normal;clip-rule:nonzero;display:inline;overflow:visible;visibility:visible;opacity:1;isolation:auto;mix-blend-mode:normal;color-interpolation:sRGB;color-interpolation-filters:linearRGB;solid-color:#000000;solid-opacity:1;fill:#357ec7;fill-opacity:1;fill-rule:nonzero;stroke:none;stroke-width:1;stroke-linecap:butt;stroke-linejoin:miter;stroke-miterlimit:4;stroke-dasharray:none;stroke-dashoffset:0;stroke-opacity:1;color-rendering:auto;image-rendering:auto;shape-rendering:auto;text-rendering:auto;enable-background:accumulate"
           id="path3592"
           d="m 106.8125,226.74023 c -13.427684,0 -25.075138,8.23702 -30.199219,19.87305 -2.975895,-0.91041 -6.118965,-1.43359 -9.392578,-1.43359 -16.14304,0 -29.678393,11.9034 -32.416015,27.3164 C 33.327569,272.28701 31.872938,272 30.339844,272 12.255928,272 -2.6542969,286.91023 -2.6542969,304.99414 l 0,80.38477 c 0,18.083 14.9089079,32.99414 32.9941409,32.99414 1.532907,0 2.988059,-0.28512 4.464844,-0.49414 2.738291,15.41182 16.273027,27.31445 32.416015,27.31445 3.27327,0 6.4172,-0.52335 9.392578,-1.43359 5.124082,11.63602 16.77154,19.87304 30.199219,19.87304 18.08392,0 32.99608,-14.90894 32.99609,-32.99414 l 0,-52.45703 171.75586,0 0,52.45703 c 0,18.08456 14.91042,32.9961 32.9961,32.9961 13.42773,0 25.07554,-8.23736 30.19922,-19.87305 2.97521,0.90992 6.11793,1.43164 9.39062,1.43164 16.14259,0 29.67765,-11.90228 32.41602,-27.31445 1.47609,0.20877 2.93103,0.49414 4.46289,0.49414 18.08437,0 32.99609,-14.90854 32.99609,-32.99219 l 0,-80.38086 0,-0.004 C 454.02784,286.91049 439.11487,272 421.03125,272 c -1.53249,0 -2.98655,0.28523 -4.46289,0.49414 -2.73847,-15.41243 -16.27403,-27.31445 -32.41602,-27.31445 -3.27394,0 -6.41661,0.52314 -9.39257,1.43359 -5.12364,-11.63595 -16.76992,-19.87305 -30.19727,-19.87305 -18.08437,0 -32.99608,14.9096 -32.99609,32.99415 l 0,52.45898 -171.75782,0 0,-52.45898 c 0,-18.08522 -14.91217,-32.99415 -32.99609,-32.99415 z m 0,24.52344 c 4.83285,0 8.47265,3.63919 8.47266,8.47071 l 0,65.2207 a 11.762855,11.762855 0 0 0 11.76172,11.76172 l 197.28124,0 a 11.762855,11.762855 0 0 0 11.76172,-11.76172 l 0,-65.2207 c 0,-4.83224 3.63821,-8.47071 8.47266,-8.47071 4.83285,0 8.4707,3.63782 8.4707,8.47071 l 0,9.82617 a 11.762855,11.762855 0 0 0 9.24805,11.49023 l 0.95508,0.20899 a 11.762855,11.762855 0 0 0 13.20898,-6.59766 c 1.32978,-2.90679 4.18049,-4.95899 7.70703,-4.95899 4.83223,0 8.47266,3.64077 8.47266,8.47071 l 0,15.23633 a 11.762855,11.762855 0 0 0 20.92188,7.37695 l 0.88281,-1.0957 c 1.56964,-1.94595 3.8562,-3.16797 6.60156,-3.16797 4.83378,0 8.47197,3.63741 8.4707,8.46875 a 11.762855,11.762855 0 0 0 0,0.004 l 0,80.38477 c 0,4.82901 -3.63827,8.46875 -8.47265,8.46875 -2.75031,0 -5.02987,-1.21877 -6.59766,-3.16406 l -0.88672,-1.09961 a 11.762855,11.762855 0 0 0 -20.92187,7.37695 l 0,15.23633 c 0,4.82829 -3.64124,8.4707 -8.47266,8.4707 -3.52856,0 -6.37562,-2.0487 -7.70703,-4.95898 a 11.762855,11.762855 0 0 0 -13.1875,-6.60156 l -0.95508,0.20703 a 11.762855,11.762855 0 0 0 -9.26953,11.49414 l 0,9.82812 c 0,4.83288 -3.63924,8.47266 -8.4707,8.47266 -4.83308,0 -8.47266,-3.64044 -8.47266,-8.47266 l 0,-65.21875 A 11.762855,11.762855 0 0 0 324.32617,353.6582 l -197.27929,0 a 11.762855,11.762855 0 0 0 -11.76172,11.76172 l 0,65.21875 c 0,4.83151 -3.6398,8.4707 -8.47266,8.47071 -4.83445,0 -8.472656,-3.63848 -8.472656,-8.47071 l 0,-9.82812 a 11.762855,11.762855 0 0 0 -9.242188,-11.48828 l -0.953125,-0.20899 a 11.762855,11.762855 0 0 0 -13.214843,6.5957 c -1.330969,2.90934 -4.182338,4.96094 -7.708985,4.96094 -4.833016,0 -8.472656,-3.64169 -8.472656,-8.4707 l 0,-15.23633 a 11.762855,11.762855 0 0 0 -20.916016,-7.38477 l -0.888672,1.10157 a 11.762855,11.762855 0 0 0 -0.002,0.002 c -1.569633,1.94635 -3.855759,3.16797 -6.601562,3.16797 -4.831404,0 -8.470703,-3.64106 -8.470703,-8.4707 l 0,-80.38477 c 0,-4.83288 3.637814,-8.4707 8.470703,-8.4707 2.750755,0 5.033878,1.21931 6.601562,3.16406 l 0.884766,1.09961 a 11.762855,11.762855 0 0 0 20.921875,-7.37695 l 0,-15.23633 c 0,-4.83065 3.638833,-8.4707 8.472656,-8.47071 3.528611,0 6.378356,2.0504 7.708985,4.95899 a 11.762855,11.762855 0 0 0 13.214843,6.5957 l 0.953125,-0.20898 a 11.762855,11.762855 0 0 0 9.242188,-11.48828 l 0,-9.82617 c 0,-4.83225 3.638206,-8.47071 8.472656,-8.47071 z"
           transform="matrix(-0.66581521,0.66581521,-0.66581521,-0.66581521,594.89967,410.40015)" /></g></g></g></svg>